<?xml version="1.0" encoding="UTF-8"?>
<svg id="Layer_2" data-name="Layer 2" xmlns="http://www.w3.org/2000/svg" viewBox="0 0 66.21 52.31">
  <defs>
    <style>
      .cls-1 {
        fill: #fff;
        stroke-width: 0px;
      }
    </style>
  </defs>
  <g id="Layer_1-2" data-name="Layer 1">
    <g>
      <g>
        <path class="cls-1" d="m33.1,0C21.93,0,12.88,9.05,12.88,20.22s9.05,20.23,20.22,20.23c2.61,0,5.11-.49,7.4-1.4-.27-.54-.42-1.15-.42-1.79,0-.54.11-1.06.3-1.53-1.61.72-3.4,1.12-5.28,1.12-7.16,0-12.96-5.8-12.96-12.96s5.8-12.96,12.96-12.96,12.96,5.8,12.96,12.96c0,3.66-1.52,6.97-3.96,9.33h.02c1.25,0,2.37.57,3.11,1.47,3.76-3.67,6.09-8.79,6.09-14.46C53.33,9.05,44.27,0,33.1,0Z"/>
        <path class="cls-1" d="m46.43,37.26c0,1.27-1.03,2.3-2.3,2.3-.88,0-1.64-.49-2.03-1.22-.17-.32-.27-.69-.27-1.09,0-1.27,1.03-2.3,2.3-2.3.74,0,1.4.35,1.82.89.3.39.48.88.48,1.41Z"/>
      </g>
      <g>
        <path class="cls-1" d="m4.15,52.31c-.84,0-1.53-.06-2.07-.17-.54-.11-.96-.32-1.27-.63-.3-.31-.52-.75-.64-1.32-.12-.57-.18-1.32-.18-2.24v-.22c0-.76.04-1.4.11-1.91.07-.52.2-.94.39-1.26.18-.32.43-.57.75-.74.31-.17.71-.29,1.19-.35.48-.06,1.05-.09,1.72-.09h2.25c.67,0,1.24.03,1.72.09.48.06.87.18,1.19.35.31.17.56.42.75.74.18.32.31.74.39,1.26.07.52.11,1.15.11,1.91v.22c0,.92-.06,1.67-.18,2.24-.12.57-.33,1.01-.64,1.32-.3.31-.73.51-1.27.63-.54.11-1.23.17-2.07.17h-2.25Zm0-.93h2.25c.53,0,.98-.02,1.35-.06.36-.04.66-.12.89-.24.23-.12.4-.31.53-.56.12-.25.2-.58.25-1,.04-.42.07-.94.07-1.58v-.22c0-.66-.02-1.2-.07-1.62-.04-.42-.13-.76-.25-1.01-.12-.25-.3-.43-.53-.54-.23-.11-.53-.19-.89-.22-.37-.03-.81-.05-1.35-.05h-2.25c-.53,0-.98.02-1.35.05-.37.03-.66.1-.89.22-.23.11-.4.29-.53.54-.12.25-.2.58-.25,1.01-.04.42-.07.96-.07,1.62v.22c0,.63.02,1.16.07,1.58.04.42.13.75.25,1,.12.25.3.44.53.56.23.12.53.2.89.24.36.04.81.06,1.35.06Z"/>
        <path class="cls-1" d="m12.55,52.13v-6.44h1.07v.89c.12-.19.24-.35.36-.48.12-.13.28-.23.48-.3.2-.07.46-.13.8-.16.34-.03.78-.05,1.32-.05v.9c-.74,0-1.31.03-1.71.08-.4.05-.69.14-.87.27-.18.12-.28.3-.32.52-.04.22-.06.5-.06.84v3.93h-1.07Z"/>
        <path class="cls-1" d="m18.41,44.08h0c0-.3.24-.54.54-.54h0c.3,0,.54.24.54.54h0c0,.3-.24.54-.54.54h0c-.3,0-.54-.24-.54-.54Zm0,8.05v-6.08h1.07v6.08h-1.07Z"/>
        <path class="cls-1" d="m28.74,50.22c0,.48-.07.86-.21,1.13-.14.28-.36.48-.66.6-.29.13-.67.21-1.13.24-.46.04-1,.05-1.63.05-.72,0-1.33-.04-1.83-.11-.5-.07-.91-.22-1.21-.45-.31-.23-.53-.56-.67-1.01-.14-.45-.21-1.05-.21-1.8s.07-1.32.2-1.75c.14-.44.36-.77.66-.99.31-.22.71-.37,1.2-.45.5-.07,1.11-.11,1.82-.11.82,0,1.51.06,2.05.17.54.12.94.34,1.21.66.27.32.4.8.4,1.42v1.38h-6.47c0,.48.04.86.1,1.15.06.29.19.5.38.65.19.15.47.24.85.29.38.05.88.07,1.51.07.57,0,1.02-.01,1.37-.03.35-.02.61-.07.79-.15.18-.08.3-.19.37-.34.06-.15.09-.36.09-.61h1Zm-3.65-3.76c-.61,0-1.1.02-1.47.07-.37.05-.65.13-.85.26-.19.13-.33.32-.39.57-.07.25-.11.59-.11,1h5.44v-.54c0-.27-.03-.49-.09-.67-.06-.18-.18-.32-.36-.42-.18-.1-.44-.17-.79-.22-.35-.04-.81-.06-1.38-.06Z"/>
        <path class="cls-1" d="m34.34,52.25c-.72,0-1.33-.04-1.83-.11-.5-.07-.91-.22-1.22-.45-.31-.23-.53-.56-.68-1.01-.14-.45-.21-1.05-.21-1.8s.07-1.32.21-1.75c.14-.44.37-.77.68-.99.31-.22.72-.37,1.22-.45.5-.07,1.11-.11,1.83-.11.86,0,1.57.05,2.13.15.56.1.97.3,1.24.61.27.31.4.77.4,1.4h-1.03c0-.36-.07-.63-.22-.81-.15-.18-.42-.3-.82-.36-.4-.06-.96-.09-1.7-.09-.66,0-1.19.03-1.58.08-.39.06-.67.16-.86.33-.18.16-.3.4-.35.72-.05.32-.08.75-.08,1.28s.03.99.08,1.32c.05.33.17.58.35.75.18.17.47.28.86.33.39.05.91.08,1.58.08.56,0,1.02-.02,1.38-.05.36-.03.64-.1.83-.19s.33-.23.41-.41c.08-.18.11-.42.11-.72h1.03c0,.5-.07.9-.22,1.2-.15.3-.38.53-.68.68-.31.15-.7.26-1.17.31-.48.05-1.04.08-1.69.08Z"/>
        <path class="cls-1" d="m43.58,52.25c-.72,0-1.33-.04-1.83-.11-.5-.07-.91-.22-1.22-.45s-.53-.56-.68-1.01c-.14-.45-.21-1.05-.21-1.8s.07-1.32.21-1.75c.14-.44.37-.77.68-.99s.72-.37,1.22-.45c.5-.07,1.11-.11,1.83-.11s1.33.04,1.84.11c.5.07.91.22,1.22.45.31.22.53.55.68.99.14.44.21,1.02.21,1.75s-.07,1.35-.21,1.8c-.14.45-.37.79-.68,1.01-.31.23-.71.37-1.22.45-.5.07-1.11.11-1.84.11Zm2.87-3.37c0-.53-.03-.96-.08-1.28-.05-.32-.17-.56-.35-.72-.18-.16-.47-.27-.85-.33-.39-.06-.91-.08-1.58-.08s-1.19.03-1.58.08c-.39.06-.67.16-.86.33-.18.16-.3.4-.35.72-.05.32-.08.75-.08,1.28s.03.99.08,1.32c.05.33.17.58.35.75.18.17.47.28.86.33.39.05.91.08,1.58.08s1.19-.03,1.58-.08c.39-.05.67-.16.85-.33.18-.17.3-.41.35-.75.05-.33.08-.77.08-1.32Z"/>
        <path class="cls-1" d="m52.99,52.25c-.72,0-1.33-.04-1.83-.11-.5-.07-.91-.22-1.22-.45s-.53-.56-.68-1.01c-.14-.45-.21-1.05-.21-1.8s.07-1.32.21-1.75c.14-.44.37-.77.68-.99s.72-.37,1.22-.45c.5-.07,1.11-.11,1.83-.11s1.27.05,1.75.16c.47.1.85.34,1.12.7v-2.88h1.07v8.58h-1.07v-.74c-.27.37-.65.6-1.12.7-.47.1-1.06.16-1.75.16Zm2.87-3.37c0-.53-.04-.96-.11-1.28-.07-.32-.21-.56-.41-.72-.2-.16-.49-.27-.87-.33-.38-.06-.87-.08-1.47-.08-.66,0-1.19.03-1.58.08-.39.06-.67.16-.85.33-.18.16-.3.4-.35.72-.05.32-.08.75-.08,1.28s.03.99.08,1.32c.05.33.17.58.35.75.18.17.47.28.85.33.39.05.91.08,1.58.08.61,0,1.1-.03,1.47-.08.38-.05.66-.16.87-.33.2-.17.34-.41.41-.75.07-.33.11-.77.11-1.32Z"/>
        <path class="cls-1" d="m66.21,50.22c0,.48-.07.86-.22,1.13-.14.28-.36.48-.66.6-.29.13-.67.21-1.13.24-.46.04-1,.05-1.63.05-.72,0-1.33-.04-1.83-.11-.5-.07-.91-.22-1.21-.45-.31-.23-.53-.56-.67-1.01-.14-.45-.21-1.05-.21-1.8s.07-1.32.2-1.75c.14-.44.36-.77.66-.99.31-.22.71-.37,1.2-.45.5-.07,1.11-.11,1.82-.11.82,0,1.5.06,2.05.17.54.12.94.34,1.21.66.27.32.4.8.4,1.42v1.38h-6.47c0,.48.04.86.1,1.15.06.29.19.5.38.65.19.15.47.24.85.29.38.05.88.07,1.51.07.57,0,1.02-.01,1.37-.03.35-.02.61-.07.79-.15.18-.08.3-.19.37-.34.06-.15.09-.36.09-.61h1Zm-3.65-3.76c-.61,0-1.1.02-1.47.07-.37.05-.65.13-.85.26-.19.13-.33.32-.39.57-.07.25-.11.59-.11,1h5.44v-.54c0-.27-.03-.49-.09-.67-.06-.18-.18-.32-.36-.42-.18-.1-.44-.17-.79-.22-.35-.04-.81-.06-1.38-.06Z"/>
      </g>
    </g>
  </g>
</svg>